pedal_clip_forces.mot
version=1
nRows=125
nColumns=4
inDegrees=yes
endheader
time	PedalClip_calcn_r_Fx	PedalClip_calcn_r_Fy	PedalClip_calcn_r_Fz
1.02486154	-446.052721697274	783.004014568736	0
1.02495292	-446.649949817085	784.215936185163	0
1.0253372	-447.246723792009	785.42713311238	0
1.02539264	-447.843060016848	786.637803536817	0
1.0254875	-448.438990260527	787.848149227375	0
1.02596179	-449.034558987057	789.058357779956	0
1.02598865	-449.629808318016	790.268560056732	0
1.02601551	-450.224781883433	791.478836167592	0
1.02608344	-450.819459012129	792.689091372949	0
1.02629645	-451.413727901604	793.898979544054	0
1.02635811	-452.007442604763	795.10811667907	0
1.02659371	-452.600464777213	796.316186682304	0
1.02682149	-453.192666662205	797.522959530003	0
1.02711026	-453.783939568896	798.728310300477	0
1.02713914	-454.374185335958	799.932158050114	0
1.02718894	-454.963326487729	801.134451632767	0
1.02730665	-455.551325940696	802.335173688152	0
1.02754603	-456.138201077915	803.534348129028	0
1.02777348	-456.724002595473	804.732062516855	0
1.02799181	-457.308831426107	805.928507531009	0
1.02830671	-457.89277096722	807.12386301	0
1.0283382	-458.475853055118	808.31828099164	0
1.02839037	-459.05807269354	809.511833536194	0
1.02855765	-459.639418573613	810.704553470355	0
1.02862438	-460.219890144965	811.896450315183	0
1.02889576	-460.799518574319	813.08753341007	0
1.02936578	-461.378380172717	814.277877503363	0
1.02953433	-461.956517336388	815.467504634128	0
1.02974377	-462.53391569404	816.656356675629	0
1.0300522	-463.110548625417	817.844345836082	0
1.03008304	-463.686413632605	819.031464558552	0
1.03013201	-464.261543010932	820.217827013914	0
1.03026391	-464.835966295133	821.403531351625	0
1.03047819	-465.409658303901	822.588587835013	0
1.0305806	-465.982545050182	823.772866691076	0
1.03109265	-466.554527989001	824.95614199462	0
1.03112183	-467.125497152174	826.138133833346	0
1.03115102	-467.695358695068	827.318614075317	0
1.03125728	-468.264077237304	828.497524698514	0
1.03164104	-468.831679372528	829.674980438563	0
1.03177973	-469.398231981099	830.851143580771	0
1.03213801	-469.963819318912	832.026192447284	0
1.03216921	-470.528559126918	833.200359006748	0
1.03220041	-471.092563591522	834.373829329141	0
1.03225887	-471.65596509287	835.546827254011	0
1.03248019	-472.218926987074	836.719636227251	0
1.03255339	-472.782299468994	837.892544729249	0
1.03286063	-473.353927418488	839.066966274178	0
1.03316124	-473.953398929747	840.258380893725	0
1.0331913	-474.598795691873	841.515709497235	0
1.03323752	-475.286954685969	842.889068624149	0
1.0333539	-475.999314664585	844.376142543149	0
1.03384518	-476.717888468931	845.92867858435	0
1.03390658	-477.432812816925	847.502453088144	0
1.03398917	-478.140656251728	849.075678668286	0
1.03423226	-478.842379846176	850.641389046634	0
1.03430177	-479.542142024646	852.2011998944	0
1.03464928	-480.245212642175	853.762071611519	0
1.03469751	-480.956561671298	855.332719105839	0
1.03476953	-481.67965899276	856.920126510923	0
1.03512965	-482.415432100175	858.526485272931	0
1.03521083	-483.163883100614	860.151468806838	0
1.03561675	-483.924239921393	861.793866018809	0
1.03563691	-484.696831773512	863.454596455155	0
1.03565708	-485.483859180635	865.138444697958	0
1.03575231	-486.288062068788	866.853319644451	0
1.03605905	-487.111788418814	868.615771140655	0
1.03614341	-487.95608606559	870.453397305166	0
1.0365652	-488.820331177312	872.396391198117	0
1.03660738	-489.705080236201	874.47995884124	0
1.03667579	-490.612849208152	876.749621069993	0
1.03696394	-491.546521780138	879.251047853049	0
1.03740329	-492.508388593005	881.993893255834	0
1.0374564	-493.499559198203	884.945643720741	0
1.03753454	-494.520227683936	888.052059954191	0
1.03792524	-495.571620092977	891.25839125516	0
1.0381337	-496.656475806779	894.516369758355	0
1.03858828	-497.778122051408	897.777572464406	0
1.03889889	-498.93900662823	900.995347493147	0
1.03893982	-500.140122966034	904.130841599478	0
1.0390246	-501.382364985385	907.161443496135	0
1.03940361	-502.671028747581	910.086963012746	0
1.0395049	-504.013969903566	912.911025283985	0
1.04001134	-505.412867389531	915.626609213705	0
1.04007677	-506.855976454164	918.222401718525	0
1.04021278	-508.316078182656	920.704379265985	0
1.04046776	-509.7607049512	923.096676341401	0
1.04122701	-511.269435099878	925.427663402211	0
1.04125876	-513.120562258279	927.714303189356	0
1.04130562	-515.053424965144	929.947737893423	0
1.04146705	-516.543308357515	932.103756172374	0
1.04174847	-517.503574397478	934.164044815942	0
1.04180825	-518.150215348562	936.123624258993	0
1.04182299	-518.651057452077	937.989125438036	0
1.04183773	-519.079325305888	939.77237217333	0
1.04185593	-519.460059609542	941.482370662076	0
1.04189023	-519.801446430762	943.124490311911	0
1.04206175	-520.106638798467	944.702164610284	0
1.04275966	-520.377289412908	946.218776224348	0
1.04279609	-520.614593232642	947.678759675984	0
1.04284157	-520.819962354165	949.088177190439	0
1.04306894	-520.996188362702	950.456463845542	0
1.04317001	-521.150393159621	951.800377116211	0
1.04367536	-521.29450652007	953.146974848513	0
1.0438114	-521.43319797578	954.515998330256	0
1.044315	-521.530894726847	955.887104029769	0
1.04436536	-521.545872316403	957.215774650551	0
1.0444292	-521.483553628736	958.482926495687	0
1.04474843	-521.374477595901	959.704953448772	0
1.04508813	-521.227166996229	960.885306403061	0
1.04585489	-521.043354070106	962.014220842581	0
1.04597371	-520.823961296751	963.080760061652	0
1.04641887	-520.569425669986	964.076493406909	0
1.04669698	-520.279920781249	964.995886986325	0
1.04751201	-519.955487635938	965.836647133805	0
1.04779333	-519.596105938435	966.598704823864	0
1.04886628	-519.201731097929	967.283032496803	0
1.04889262	-518.772312691788	967.890897335121	0
1.0489456	-518.307803267286	968.423506954063	0
1.04907766	-517.808162255319	968.881902228595	0
1.04967702	-517.27335749227	969.266956938666	0
1.0499767	-516.703365628185	969.579395394725	0
1.05147509	-516.098172059755	969.819816525418	0
1.05150528	-515.457770693228	969.988724828413	0
1.05159924	-514.782163669433	970.086554533613	0
